<svg width="800" viewBox="0 0 680 560" xmlns="http://www.w3.org/2000/svg" font-family="ui-sans-serif, system-ui, sans-serif">
<defs>
<marker id="arrow" viewBox="0 0 10 10" refX="8" refY="5" markerWidth="6" markerHeight="6" orient="auto-start-reverse">
<path d="M2 1L8 5L2 9" fill="none" stroke="#888780" stroke-width="1.5" stroke-linecap="round" stroke-linejoin="round"/>
</marker>
</defs>

<rect x="250" y="30" width="180" height="44" rx="8" fill="#F1EFE8" stroke="#5F5E5A" stroke-width="0.5"/>
<text font-size="14" font-weight="500" fill="#444441" x="340" y="46" text-anchor="middle" dominant-baseline="central">Browser</text>
<text font-size="12" fill="#5F5E5A" x="340" y="62" text-anchor="middle" dominant-baseline="central">User opens portal</text>

<line x1="340" y1="74" x2="340" y2="108" stroke="#888780" stroke-width="0.5" marker-end="url(#arrow)"/>
<text font-size="12" fill="#888780" x="354" y="96">HTTPS</text>

<rect x="170" y="108" width="340" height="72" rx="8" fill="#EEEDFE" stroke="#534AB7" stroke-width="0.5"/>
<text font-size="14" font-weight="500" fill="#3C3489" x="340" y="132" text-anchor="middle" dominant-baseline="central">Custom web portal</text>
<text font-size="12" fill="#534AB7" x="340" y="150" text-anchor="middle" dominant-baseline="central">API-based auth · RBAC rendering</text>
<text font-size="12" fill="#534AB7" x="340" y="166" text-anchor="middle" dominant-baseline="central">Apache reverse proxy · systemd</text>

<rect x="522" y="108" width="134" height="72" rx="8" fill="none" stroke="#888780" stroke-width="0.5" stroke-dasharray="5 4"/>
<text font-size="12" fill="#5F5E5A" x="530" y="128">Roles</text>
<text font-size="12" fill="#444441" x="530" y="148">admin</text>
<text font-size="12" fill="#444441" x="530" y="164">operator</text>
<text font-size="12" fill="#444441" x="530" y="180">viewer</text>
<line x1="510" y1="144" x2="522" y2="144" stroke="#888780" stroke-width="0.5" stroke-dasharray="4 3"/>

<line x1="340" y1="180" x2="340" y2="214" stroke="#888780" stroke-width="0.5" marker-end="url(#arrow)"/>
<text font-size="12" fill="#888780" x="354" y="202">POST /api/token/</text>

<rect x="190" y="214" width="300" height="56" rx="8" fill="#E1F5EE" stroke="#0F6E56" stroke-width="0.5"/>
<text font-size="14" font-weight="500" fill="#085041" x="340" y="234" text-anchor="middle" dominant-baseline="central">Paperless-ngx</text>
<text font-size="12" fill="#0F6E56" x="340" y="252" text-anchor="middle" dominant-baseline="central">REST API · document management · OCR</text>

<line x1="340" y1="270" x2="340" y2="310" stroke="#888780" stroke-width="0.5" marker-end="url(#arrow)"/>

<rect x="30" y="310" width="620" height="206" rx="14" fill="#F1EFE8" stroke="#5F5E5A" stroke-width="0.5"/>
<text font-size="14" font-weight="500" fill="#444441" x="50" y="336">Docker Compose stack</text>
<text font-size="12" fill="#5F5E5A" x="50" y="354">Vagrant VM · Ubuntu 22.04 · 192.168.155.10 → migrated to Hostinger VPS</text>

<rect x="52"  y="368" width="132" height="56" rx="6" fill="#E1F5EE" stroke="#0F6E56" stroke-width="0.5"/>
<text font-size="14" font-weight="500" fill="#085041" x="118" y="388" text-anchor="middle" dominant-baseline="central">PostgreSQL 15</text>
<text font-size="12" fill="#0F6E56" x="118" y="406" text-anchor="middle" dominant-baseline="central">Document metadata</text>

<rect x="200" y="368" width="100" height="56" rx="6" fill="#E1F5EE" stroke="#0F6E56" stroke-width="0.5"/>
<text font-size="14" font-weight="500" fill="#085041" x="250" y="388" text-anchor="middle" dominant-baseline="central">Redis</text>
<text font-size="12" fill="#0F6E56" x="250" y="406" text-anchor="middle" dominant-baseline="central">Queue · cache</text>

<rect x="316" y="368" width="120" height="56" rx="6" fill="#E1F5EE" stroke="#0F6E56" stroke-width="0.5"/>
<text font-size="14" font-weight="500" fill="#085041" x="376" y="388" text-anchor="middle" dominant-baseline="central">Gotenberg</text>
<text font-size="12" fill="#0F6E56" x="376" y="406" text-anchor="middle" dominant-baseline="central">PDF conversion</text>

<rect x="452" y="368" width="172" height="56" rx="6" fill="#E1F5EE" stroke="#0F6E56" stroke-width="0.5"/>
<text font-size="14" font-weight="500" fill="#085041" x="538" y="388" text-anchor="middle" dominant-baseline="central">Apache Tika</text>
<text font-size="12" fill="#0F6E56" x="538" y="406" text-anchor="middle" dominant-baseline="central">Content extraction · OCR</text>

<rect x="52" y="448" width="572" height="36" rx="6" fill="none" stroke="#888780" stroke-width="0.5" opacity="0.5"/>
<text font-size="12" fill="#5F5E5A" x="338" y="470" text-anchor="middle" dominant-baseline="central">OCR language: eng+por · timezone: America/Sao_Paulo</text>
</svg>
